<?xml version="1.0" encoding="utf-8"?>
<!-- Generator: Adobe Illustrator 23.0.3, SVG Export Plug-In . SVG Version: 6.00 Build 0)  -->
<svg version="1.1" id="Layer_1" xmlns="http://www.w3.org/2000/svg" xmlns:xlink="http://www.w3.org/1999/xlink" x="0px" y="0px"
	 viewBox="0 0 1868 864.5" style="enable-background:new 0 0 1868 864.5;" xml:space="preserve">
<style type="text/css">
	.st0{fill:#00953B;}
</style>
<title>Cedr_logo</title>
<g id="Type">
	<path d="M531.4,806.7c-21.5-12.5-38-30.6-49.4-54.2c-11.4-23.7-17.1-52.1-17-85.3V352.7c0-33.5,5.7-62,17-85.7s27.7-41.8,49.1-54.2
		c21.4-12.5,47.3-18.7,77.6-18.7c30.3,0,56.3,6.2,77.9,18.7c21.5,12.5,37.9,30.6,49.1,54.3c11.2,23.7,16.8,52.1,16.8,85.3v22.5
		h-61.3v-22.5c0-21-3.2-38.9-9.6-53.6c-6.4-14.8-15.7-26-28.1-33.8c-12.3-7.8-27.3-11.7-44.9-11.7c-17.3,0-32.1,3.9-44.5,11.7
		c-12.3,7.8-21.8,19.1-28.3,34c-6.5,14.9-9.8,32.8-9.8,53.8v314.4c0,20.7,3.3,38.5,9.8,53.3c6.5,14.8,16,26.2,28.3,34
		c12.3,7.8,27.1,11.7,44.5,11.7c17.6,0,32.6-3.9,44.9-11.7c12.3-7.8,21.7-19,28.1-33.8c6.4-14.7,9.6-32.6,9.6-53.6v-22.5h61.3v22.5
		c0,33.2-5.6,61.6-16.8,85.3s-27.6,41.8-49.1,54.2c-21.6,12.5-47.5,18.7-77.9,18.7C578.8,825.4,553,819.2,531.4,806.7z"/>
	<path d="M829.3,200.4h61.3V819h-61.3V200.4z M871.4,200.4h223.4v57H871.4V200.4z M871.4,483.3h202.1v57H871.4V483.3z M871.4,762
		h223.4v57H871.4V762z"/>
	<path d="M1158.6,200.4h61.3V819h-61.3V200.4z M1191.8,762h150.6c14.8,0,26.1-4.4,34-13.2c7.9-8.8,11.9-21.3,11.9-37.4V308
		c0-16.2-4-28.7-11.9-37.4c-7.9-8.8-19.3-13.2-34-13.2h-150.6v-57h148.1c23.3,0,43.1,4.3,59.6,13c16.2,8.4,29.3,21.6,37.4,37.9
		c8.5,16.6,12.8,36.7,12.8,60.2V708c0,23.5-4.3,43.6-13,60.2c-8.3,16.2-21.5,29.5-37.7,37.9c-16.5,8.7-36.3,13-59.6,13h-147.7V762z"
		/>
	<path d="M1534.7,200h61.3V819h-61.3V200z M1572.6,500.4h114.5c18.4,0,34.3-3.4,47.5-10.2c13-6.6,23.5-17.1,30.2-30
		c7-13.2,10.4-29,10.4-47.4v-63.8c0-19.3-3.5-35.8-10.4-49.6c-6.6-13.4-17.1-24.3-30.2-31.5c-13.2-7.2-29-10.9-47.5-10.9h-114.4v-57
		h110.2c32.3,0,60,5.5,83,16.4c22.1,10.1,40.4,26.9,52.5,48c12.1,21.1,18.1,46.4,18.1,76v72.3c0,30.4-6,56.4-18.1,78.1
		c-11.9,21.6-30.3,38.9-52.5,49.6c-23,11.4-50.6,17-83,17h-110.2L1572.6,500.4z M1700.6,538.2l54.5-19.6l98.7,300.4h-71.1
		L1700.6,538.2z"/>
</g>
<g id="Final_Logo_Joined">
	<path class="st0" d="M14.3,620.4V580l174.6-173h-87.6v-40.5l174.6-173h-87.6v-40.5L336,6.5l70.8,70.8v40.5L336,46.9L229.1,153.1
		l88.2-0.5V193L142.2,366.5l87.1,0.5v40.5L55.2,580h235.3c6.1,0,22.7,5,31.2,14.8c7.3,8.5,11.6,23.3,12.9,44.5l0.3,15.6l6.3,115.3
		c1.2,22.6,11.6,33.9,31.2,33.9h29.4l-5.5,40.2h-29.4c-35.5,0-54.5-21.9-56.9-65.6l-3.3-55.7L240.9,843h-39.5l101.5-173l-1.5-28.6
		c-1.2-14.1-6.7-21.2-16.5-21.2L14.3,620.4z"/>
</g>
</svg>
