<svg xmlns="http://www.w3.org/2000/svg" viewBox="0 0 1868 1012"><defs><style>.cls-1{fill:#00953b;}</style></defs><title>Cedr_logo</title><g id="Type"><path d="M626.38,650.5Q607,639.27,596.75,617.94t-10.21-51.2V378q0-30.12,10.21-51.45T626.25,294q19.28-11.22,46.6-11.23T719.59,294q19.39,11.25,29.49,32.57t10.09,51.2V391.3H722.39V377.77q0-18.9-5.74-32.18t-16.86-20.3q-11.1-7-26.94-7-15.57,0-26.68,7t-17,20.43q-5.86,13.41-5.87,32.3V566.74q0,18.64,5.87,32t17,20.43q11.1,7,26.68,7,15.84,0,26.94-7t16.86-20.3q5.75-13.27,5.74-32.18V553.21h36.78v13.53q0,29.88-10.09,51.2T719.59,650.5q-19.41,11.24-46.74,11.24Q645.77,661.74,626.38,650.5Z"/><path d="M805.13,286.6h36.78V657.91H805.13Zm25.29,0H964.49v34.22H830.42Zm0,169.82h121.3v34.22H830.42Zm0,167.27H964.49v34.22H830.42Z"/><path d="M1002.79,286.6h36.78V657.91h-36.78Zm19.92,337.09h90.4q13.28,0,20.43-7.92t7.15-22.47V351.21q0-14.56-7.15-22.47t-20.43-7.92h-90.4V286.6h88.87q20.94,0,35.75,7.79a51.74,51.74,0,0,1,22.47,22.73q7.67,14.94,7.67,36.13v238q0,21.19-7.79,36.13a52.56,52.56,0,0,1-22.6,22.73q-14.82,7.8-35.75,7.79h-88.62Z"/><path d="M1228.54,286.34h36.77V657.91h-36.77Zm22.73,180.3H1320q16.61,0,28.48-6.13a41.72,41.72,0,0,0,18.13-18q6.26-11.87,6.26-28.47V375.72q0-17.36-6.26-29.75a43.34,43.34,0,0,0-18.13-18.89q-11.88-6.52-28.48-6.52h-68.69V286.34h66.14q29.11,0,49.8,9.84A69.76,69.76,0,0,1,1398.75,325q10.85,19,10.85,45.59V414q0,27.33-10.85,46.86a71.22,71.22,0,0,1-31.54,29.75q-20.68,10.22-49.8,10.22h-66.14Zm76.86,22.72,32.69-11.74,59.25,180.29h-42.65Z"/></g><g id="Final_Logo_Joined" data-name="Final Logo Joined"><path class="cls-1" d="M316,538.7V514.42L420.81,410.59H368.22V386.31L473,282.48H420.43V258.2l88.65-88,42.5,42.5V237l-42.5-42.51L444.89,258.2l52.95-.31v24.29L392.73,386.31l52.29.3V410.9L340.52,514.42h141.2c3.68,0,13.6,3,18.75,8.89q6.61,7.62,7.72,26.69l.18,9.35,3.78,69.18q1.1,20.34,18.75,20.33h17.64L545.23,673H527.59q-32,0-34.18-39.39l-2-33.41L452,672.28H428.32l60.9-103.85-.88-17.16c-.74-8.46-4-12.71-9.92-12.71Z"/></g></svg>